<svg width="36" height="36" viewBox="0 0 36 36" fill="none" xmlns="http://www.w3.org/2000/svg">
<rect width="36" height="36" rx="18" fill="white" fill-opacity="0.16"/>
<path d="M19.6667 25V20.1667C19.6667 20.0341 19.7193 19.9069 19.8131 19.8131C19.9069 19.7193 20.0341 19.6667 20.1667 19.6667H25C25.1326 19.6667 25.2598 19.7193 25.3536 19.8131C25.4473 19.9069 25.5 20.0341 25.5 20.1667V25C25.5 25.1326 25.4473 25.2598 25.3536 25.3536C25.2598 25.4473 25.1326 25.5 25 25.5H20.1667C20.0341 25.5 19.9069 25.4473 19.8131 25.3536C19.7193 25.2598 19.6667 25.1326 19.6667 25ZM10.5 25V20.1667C10.5 20.0341 10.5527 19.9069 10.6464 19.8131C10.7402 19.7193 10.8674 19.6667 11 19.6667H15.8333C15.9659 19.6667 16.0931 19.7193 16.1869 19.8131C16.2807 19.9069 16.3333 20.0341 16.3333 20.1667V25C16.3333 25.1326 16.2807 25.2598 16.1869 25.3536C16.0931 25.4473 15.9659 25.5 15.8333 25.5H11C10.8674 25.5 10.7402 25.4473 10.6464 25.3536C10.5527 25.2598 10.5 25.1326 10.5 25ZM19.6667 15.8333V11C19.6667 10.8674 19.7193 10.7402 19.8131 10.6464C19.9069 10.5527 20.0341 10.5 20.1667 10.5H25C25.1326 10.5 25.2598 10.5527 25.3536 10.6464C25.4473 10.7402 25.5 10.8674 25.5 11V15.8333C25.5 15.9659 25.4473 16.0931 25.3536 16.1869C25.2598 16.2807 25.1326 16.3333 25 16.3333H20.1667C20.0341 16.3333 19.9069 16.2807 19.8131 16.1869C19.7193 16.0931 19.6667 15.9659 19.6667 15.8333ZM10.5 15.8333V11C10.5 10.8674 10.5527 10.7402 10.6464 10.6464C10.7402 10.5527 10.8674 10.5 11 10.5H15.8333C15.9659 10.5 16.0931 10.5527 16.1869 10.6464C16.2807 10.7402 16.3333 10.8674 16.3333 11V15.8333C16.3333 15.9659 16.2807 16.0931 16.1869 16.1869C16.0931 16.2807 15.9659 16.3333 15.8333 16.3333H11C10.8674 16.3333 10.7402 16.2807 10.6464 16.1869C10.5527 16.0931 10.5 15.9659 10.5 15.8333Z" stroke="white" stroke-width="1.33333"/>
</svg>
